<?xml version="1.0" encoding="utf-8"?>
<!-- Generator: Adobe Illustrator 24.1.0, SVG Export Plug-In . SVG Version: 6.00 Build 0)  -->
<svg version="1.0" id="Layer_1" xmlns="http://www.w3.org/2000/svg" xmlns:xlink="http://www.w3.org/1999/xlink" x="0px" y="0px"
	 viewBox="0 0 101 100" style="enable-background:new 0 0 101 100;" xml:space="preserve">
<style type="text/css">
	.st0{fill:#303354;}
</style>
<g>
	<path class="st0" d="M100.6,50c0,27.6-22.4,50-50,50c-27.6,0-50-22.4-50-50c0-27.6,22.4-50,50-50c6,0,11.7,1,17,3
		C56.9,19,49.9,37.2,47,56.2c-3.8-4-7.8-7.8-11.9-11.4c-7-6.2-17.4,4.1-10.3,10.3c8.3,7.3,15.9,15.3,22.9,23.9
		c4.2,5.1,12.4,0.7,12.4-5.2c0.3-22.9,7.4-45.2,20.3-64C92.7,19,100.6,33.6,100.6,50z"/>
</g>
</svg>
